<svg class="iconAboveSlogan" viewBox="127.12108041431314 0 116.04419836026224 96.03999999999999" xmlns="http://www.w3.org/2000/svg" data-v-423bf9ae="" style="max-height: 500px" width="116.04419836026224" height="96.03999999999999"><g transform="matrix(4.285714285714286,0,0,4.285714285714286,-0.30000299002443853,95.79999947547913)" fill="white" id="3f76dec0-969f-47cb-869a-38b7f6dcd474" data-v-423bf9ae="" data-darkreader-inline-fill="" style="--darkreader-inline-fill: #1e1e2e;"><path d="M0.07 4.55L2.59 4.55L2.59 12.60L4.55 12.60L4.55 4.55L7.07 4.55L7.07 2.80L0.07 2.80ZM9.87 8.82C9.87 8.38 10.01 8.05 10.28 7.82C10.55 7.59 10.89 7.48 11.30 7.48C11.65 7.48 11.91 7.57 12.08 7.76C12.24 7.95 12.32 8.26 12.32 8.68L12.32 12.60L14.21 12.60L14.21 8.26C14.21 7.57 14.01 7.02 13.61 6.61C13.21 6.21 12.67 6.01 12.00 6.01C11.00 6.01 10.29 6.39 9.87 7.15L9.87 1.68L7.98 1.68L7.98 12.60L9.87 12.60ZM20.41 8.62L17.29 8.62C17.36 8.22 17.56 7.91 17.88 7.69C18.20 7.46 18.55 7.35 18.94 7.35C19.80 7.35 20.29 7.77 20.41 8.62ZM17.28 9.87L22.37 9.87C22.39 9.69 22.40 9.49 22.40 9.25C22.40 8.25 22.09 7.44 21.46 6.85C20.84 6.25 20.00 5.95 18.94 5.95C17.87 5.95 17.00 6.27 16.33 6.92C15.66 7.57 15.33 8.39 15.33 9.38C15.33 10.38 15.65 11.19 16.29 11.81C16.93 12.43 17.81 12.74 18.94 12.74C20.58 12.74 21.70 12.10 22.32 10.82L20.52 10.42C20.23 10.99 19.71 11.27 18.94 11.27C17.99 11.27 17.43 10.80 17.28 9.87ZM27.79 2.80L27.79 12.60L29.75 12.60L29.75 8.02L33.67 12.60L36.13 12.60L31.68 7.39L35.92 2.80L33.60 2.80L29.75 6.97L29.75 2.80ZM41.08 8.62L37.95 8.62C38.03 8.22 38.22 7.91 38.54 7.69C38.86 7.46 39.21 7.35 39.61 7.35C40.46 7.35 40.95 7.77 41.08 8.62ZM37.94 9.87L43.04 9.87C43.05 9.69 43.06 9.49 43.06 9.25C43.06 8.25 42.75 7.44 42.13 6.85C41.50 6.25 40.66 5.95 39.61 5.95C38.53 5.95 37.66 6.27 36.99 6.92C36.33 7.57 35.99 8.39 35.99 9.38C35.99 10.38 36.31 11.19 36.95 11.81C37.59 12.43 38.48 12.74 39.61 12.74C41.24 12.74 42.36 12.10 42.98 10.82L41.19 10.42C40.90 10.99 40.37 11.27 39.61 11.27C38.65 11.27 38.10 10.80 37.94 9.87ZM43.13 6.16L46.05 12.17L44.53 15.68L46.63 15.68L50.83 6.16L48.73 6.16L47.05 10.36L45.37 6.16ZM51.53 2.80L51.53 12.60L54.96 12.60C56.06 12.60 56.94 12.36 57.62 11.87C58.31 11.39 58.65 10.65 58.65 9.66C58.65 8.58 58.05 7.80 56.87 7.34C57.68 6.98 58.09 6.36 58.09 5.46C58.09 4.62 57.79 3.97 57.20 3.50C56.60 3.03 55.77 2.80 54.68 2.80ZM53.49 6.58L53.49 4.55L54.68 4.55C55.65 4.55 56.13 4.88 56.13 5.53C56.13 6.23 55.65 6.58 54.68 6.58ZM53.49 8.26L54.96 8.26C55.48 8.26 55.89 8.37 56.21 8.60C56.53 8.82 56.69 9.15 56.69 9.59C56.69 10.43 56.11 10.85 54.96 10.85L53.49 10.85ZM59.84 3.61C59.84 3.91 59.95 4.17 60.18 4.38C60.41 4.60 60.68 4.70 61.00 4.70C61.32 4.70 61.59 4.60 61.82 4.38C62.05 4.17 62.16 3.91 62.16 3.61C62.16 3.31 62.05 3.06 61.82 2.84C61.59 2.63 61.32 2.52 61.00 2.52C60.68 2.52 60.41 2.63 60.18 2.84C59.95 3.06 59.84 3.31 59.84 3.61ZM60.03 6.16L60.03 12.60L61.95 12.60L61.95 6.16ZM65.52 8.82C65.52 8.38 65.66 8.05 65.93 7.82C66.20 7.59 66.54 7.48 66.95 7.48C67.30 7.48 67.56 7.57 67.73 7.76C67.89 7.95 67.97 8.26 67.97 8.68L67.97 12.60L69.86 12.60L69.86 8.26C69.86 7.57 69.66 7.02 69.26 6.61C68.86 6.21 68.32 6.01 67.65 6.01C66.69 6.01 65.98 6.41 65.52 7.22L65.52 6.16L63.63 6.16L63.63 12.60L65.52 12.60ZM71.12 9.38C71.12 10.50 71.43 11.34 72.04 11.90C72.66 12.46 73.44 12.74 74.38 12.74C75.42 12.74 76.20 12.30 76.72 11.41L76.72 12.60L78.61 12.60L78.61 1.68L76.72 1.68L76.72 7.35C76.20 6.46 75.42 6.02 74.38 6.02C73.44 6.02 72.66 6.30 72.04 6.86C71.43 7.42 71.12 8.26 71.12 9.38ZM73.02 9.38C73.02 8.89 73.20 8.48 73.55 8.17C73.90 7.86 74.34 7.70 74.87 7.70C75.40 7.70 75.84 7.84 76.20 8.11C76.55 8.39 76.72 8.81 76.72 9.38C76.72 9.95 76.55 10.37 76.20 10.65C75.84 10.92 75.40 11.06 74.87 11.06C74.32 11.06 73.88 10.92 73.53 10.63C73.19 10.35 73.02 9.93 73.02 9.38ZM81.42 10.35L79.80 10.88C79.89 11.48 80.21 11.95 80.74 12.29C81.27 12.64 81.94 12.81 82.74 12.81C83.55 12.81 84.22 12.61 84.73 12.22C85.25 11.83 85.51 11.35 85.51 10.78C85.51 10.23 85.34 9.79 85.00 9.47C84.66 9.15 84.21 8.89 83.66 8.68C83.53 8.63 83.37 8.58 83.17 8.51C82.98 8.45 82.83 8.40 82.73 8.36C82.62 8.32 82.52 8.27 82.40 8.22C82.29 8.16 82.21 8.11 82.17 8.05C82.12 7.99 82.10 7.93 82.10 7.85C82.10 7.52 82.31 7.35 82.73 7.35C83.18 7.35 83.58 7.59 83.92 8.06L85.39 7.56C84.97 6.49 84.05 5.95 82.64 5.95C81.90 5.95 81.31 6.12 80.87 6.45C80.43 6.79 80.21 7.26 80.21 7.85C80.21 8.79 80.85 9.45 82.12 9.86C82.59 10.01 82.95 10.15 83.20 10.29C83.45 10.43 83.58 10.59 83.58 10.78C83.58 11.15 83.30 11.34 82.74 11.34C82.08 11.34 81.64 11.01 81.42 10.35Z"/></g><g fill="white" stroke="none" transform="matrix(1.3714494582262635,0,0,1.3714494582262635,114.86553204569312,-20.688377051453884)" id="75c80a50-3472-43c6-904b-f5ce92a59b73" data-v-423bf9ae="" data-darkreader-inline-fill="" data-darkreader-inline-stroke="" style="--darkreader-inline-fill: #1e1e2e; --darkreader-inline-stroke: none;"><path d="M20 80.938h60a6.57 6.57 0 006.562-6.562v-52.5A6.57 6.57 0 0080 15.314H20a6.57 6.57 0 00-6.562 6.562v52.5A6.57 6.57 0 0020 80.938zm0-63.75h60a4.693 4.693 0 014.688 4.688v4.688H15.312v-4.688A4.693 4.693 0 0120 17.188zm-4.688 11.25h69.375v45.938a4.693 4.693 0 01-4.688 4.688H20a4.693 4.693 0 01-4.688-4.688V28.438z"/><circle r="1.875" cy="21.875" cx="21.875"/><circle r="1.875" cy="21.875" cx="29.375"/><circle r="1.875" cy="21.875" cx="36.875"/><ellipse ry="2.812" rx="1.875" cy="56.562" cx="40.625"/><ellipse ry="2.812" rx="1.875" cy="56.562" cx="59.375"/><path d="M59.375 61.25h-18.75a1.875 1.875 0 00-1.805 2.377c.079.285 2.049 6.998 11.181 6.998 9.133 0 11.102-6.713 11.182-6.998a1.875 1.875 0 00-1.808-2.377z"/></g><g transform="matrix(1.4636710252249903,0,0,1.4636710252249903,46.52342549214214,194.66962712770294)" fill="white" id="acc9908f-2c71-4e1e-a70d-1de2a4ed9946" data-v-423bf9ae="" data-darkreader-inline-fill="" style="--darkreader-inline-fill: #1e1e2e;"><path d="M2.41 7.70C2.41 6.69 2.73 5.88 3.37 5.28C4.02 4.67 4.81 4.37 5.74 4.37C6.40 4.37 7.01 4.51 7.57 4.80C8.12 5.09 8.56 5.46 8.89 5.92L8.89 3.60C8.07 2.88 7.02 2.52 5.74 2.52C4.15 2.52 2.86 3.00 1.85 3.95C0.85 4.90 0.35 6.15 0.35 7.70C0.35 9.25 0.85 10.50 1.85 11.45C2.86 12.40 4.15 12.88 5.74 12.88C7.02 12.88 8.07 12.52 8.89 11.80L8.89 9.48C8.56 9.94 8.12 10.31 7.57 10.60C7.01 10.89 6.40 11.03 5.74 11.03C4.81 11.03 4.02 10.73 3.37 10.12C2.73 9.52 2.41 8.71 2.41 7.70ZM10.01 9.38C10.01 10.44 10.38 11.28 11.11 11.89C11.84 12.50 12.73 12.81 13.76 12.81C14.80 12.81 15.68 12.50 16.41 11.89C17.15 11.28 17.51 10.44 17.51 9.38C17.51 8.32 17.15 7.48 16.41 6.87C15.68 6.26 14.80 5.95 13.76 5.95C12.73 5.95 11.84 6.26 11.11 6.87C10.38 7.48 10.01 8.32 10.01 9.38ZM11.91 9.38C11.91 8.84 12.08 8.40 12.42 8.06C12.75 7.73 13.20 7.56 13.76 7.56C14.32 7.56 14.77 7.73 15.11 8.06C15.44 8.40 15.61 8.84 15.61 9.38C15.61 9.92 15.44 10.36 15.11 10.70C14.77 11.03 14.32 11.20 13.76 11.20C13.20 11.20 12.75 11.03 12.42 10.70C12.08 10.36 11.91 9.92 11.91 9.38ZM18.21 9.38C18.21 10.50 18.52 11.34 19.14 11.90C19.75 12.46 20.53 12.74 21.48 12.74C22.51 12.74 23.29 12.30 23.81 11.41L23.81 12.60L25.70 12.60L25.70 1.68L23.81 1.68L23.81 7.35C23.29 6.46 22.51 6.02 21.48 6.02C20.53 6.02 19.75 6.30 19.14 6.86C18.52 7.42 18.21 8.26 18.21 9.38ZM20.12 9.38C20.12 8.89 20.29 8.48 20.64 8.17C20.99 7.86 21.43 7.70 21.97 7.70C22.50 7.70 22.94 7.84 23.29 8.11C23.64 8.39 23.81 8.81 23.81 9.38C23.81 9.95 23.64 10.37 23.29 10.65C22.94 10.92 22.50 11.06 21.97 11.06C21.42 11.06 20.97 10.92 20.63 10.63C20.29 10.35 20.12 9.93 20.12 9.38ZM31.91 8.62L28.78 8.62C28.86 8.22 29.05 7.91 29.37 7.69C29.69 7.46 30.04 7.35 30.44 7.35C31.29 7.35 31.78 7.77 31.91 8.62ZM28.77 9.87L33.87 9.87C33.88 9.69 33.89 9.49 33.89 9.25C33.89 8.25 33.58 7.44 32.96 6.85C32.33 6.25 31.49 5.95 30.44 5.95C29.36 5.95 28.49 6.27 27.82 6.92C27.16 7.57 26.82 8.39 26.82 9.38C26.82 10.38 27.14 11.19 27.78 11.81C28.42 12.43 29.31 12.74 30.44 12.74C32.07 12.74 33.19 12.10 33.81 10.82L32.02 10.42C31.73 10.99 31.20 11.27 30.44 11.27C29.48 11.27 28.93 10.80 28.77 9.87ZM40.78 7.70C40.78 6.69 41.10 5.88 41.75 5.28C42.39 4.67 43.18 4.37 44.11 4.37C44.78 4.37 45.39 4.51 45.94 4.80C46.50 5.09 46.94 5.46 47.26 5.92L47.26 3.60C46.44 2.88 45.39 2.52 44.11 2.52C42.53 2.52 41.23 3.00 40.23 3.95C39.23 4.90 38.72 6.15 38.72 7.70C38.72 9.25 39.23 10.50 40.23 11.45C41.23 12.40 42.53 12.88 44.11 12.88C45.39 12.88 46.44 12.52 47.26 11.80L47.26 9.48C46.94 9.94 46.50 10.31 45.94 10.60C45.39 10.89 44.78 11.03 44.11 11.03C43.18 11.03 42.39 10.73 41.75 10.12C41.10 9.52 40.78 8.71 40.78 7.70ZM48.38 9.38C48.38 10.44 48.75 11.28 49.48 11.89C50.22 12.50 51.10 12.81 52.14 12.81C53.17 12.81 54.06 12.50 54.79 11.89C55.52 11.28 55.89 10.44 55.89 9.38C55.89 8.32 55.52 7.48 54.79 6.87C54.06 6.26 53.17 5.95 52.14 5.95C51.10 5.95 50.22 6.26 49.48 6.87C48.75 7.48 48.38 8.32 48.38 9.38ZM50.29 9.38C50.29 8.84 50.46 8.40 50.79 8.06C51.13 7.73 51.58 7.56 52.14 7.56C52.70 7.56 53.14 7.73 53.48 8.06C53.82 8.40 53.98 8.84 53.98 9.38C53.98 9.92 53.82 10.36 53.48 10.70C53.14 11.03 52.70 11.20 52.14 11.20C51.58 11.20 51.13 11.03 50.79 10.70C50.46 10.36 50.29 9.92 50.29 9.38ZM59.04 8.82C59.04 8.48 59.14 8.21 59.33 8.00C59.53 7.79 59.81 7.69 60.19 7.69C60.87 7.69 61.21 8.02 61.21 8.68L61.21 12.60L63.10 12.60L63.10 8.82C63.10 8.48 63.20 8.21 63.39 8.00C63.59 7.79 63.87 7.69 64.25 7.69C64.93 7.69 65.27 8.02 65.27 8.68L65.27 12.60L67.16 12.60L67.16 8.40C67.16 7.60 66.96 7.00 66.57 6.60C66.18 6.20 65.64 6.01 64.95 6.01C64.49 6.01 64.08 6.11 63.71 6.32C63.35 6.53 63.06 6.82 62.85 7.18C62.49 6.40 61.84 6.01 60.89 6.01C60.15 6.01 59.53 6.37 59.04 7.11L59.04 6.16L57.01 6.16L57.01 12.60L59.04 12.60ZM74.35 9.38C74.35 9.93 74.18 10.35 73.84 10.63C73.50 10.92 73.06 11.06 72.51 11.06C71.97 11.06 71.53 10.92 71.18 10.65C70.83 10.37 70.66 9.95 70.66 9.38C70.66 8.81 70.83 8.39 71.18 8.11C71.53 7.84 71.97 7.70 72.51 7.70C73.04 7.70 73.48 7.86 73.83 8.17C74.18 8.48 74.35 8.89 74.35 9.38ZM70.66 15.68L70.66 11.41C71.18 12.30 71.96 12.74 73.00 12.74C73.94 12.74 74.72 12.46 75.33 11.90C75.95 11.34 76.26 10.50 76.26 9.38C76.26 8.26 75.95 7.42 75.33 6.86C74.72 6.30 73.94 6.02 73.00 6.02C71.96 6.02 71.18 6.46 70.66 7.35L70.66 6.16L68.77 6.16L68.77 15.68ZM77.17 3.61C77.17 3.91 77.28 4.17 77.51 4.38C77.74 4.60 78.01 4.70 78.33 4.70C78.65 4.70 78.92 4.60 79.15 4.38C79.38 4.17 79.49 3.91 79.49 3.61C79.49 3.31 79.38 3.06 79.15 2.84C78.92 2.63 78.65 2.52 78.33 2.52C78.01 2.52 77.74 2.63 77.51 2.84C77.28 3.06 77.17 3.31 77.17 3.61ZM77.36 6.16L77.36 12.60L79.28 12.60L79.28 6.16ZM80.96 1.68L80.96 12.60L82.85 12.60L82.85 1.68ZM89.12 8.62L86.00 8.62C86.08 8.22 86.27 7.91 86.59 7.69C86.91 7.46 87.26 7.35 87.65 7.35C88.51 7.35 89.00 7.77 89.12 8.62ZM85.99 9.87L91.08 9.87C91.10 9.69 91.11 9.49 91.11 9.25C91.11 8.25 90.80 7.44 90.17 6.85C89.55 6.25 88.71 5.95 87.65 5.95C86.58 5.95 85.71 6.27 85.04 6.92C84.38 7.57 84.04 8.39 84.04 9.38C84.04 10.38 84.36 11.19 85.00 11.81C85.64 12.43 86.52 12.74 87.65 12.74C89.29 12.74 90.41 12.10 91.03 10.82L89.24 10.42C88.95 10.99 88.42 11.27 87.65 11.27C86.70 11.27 86.15 10.80 85.99 9.87ZM96.94 8.15C97.13 8.01 97.43 7.87 97.84 7.73C98.25 7.59 98.65 7.52 99.06 7.52C99.92 7.52 100.35 7.80 100.35 8.37L100.35 9.02C99.83 8.75 99.16 8.61 98.34 8.61C98.07 8.61 97.79 8.65 97.52 8.72C97.24 8.80 96.97 8.91 96.71 9.07C96.44 9.23 96.22 9.46 96.05 9.75C95.89 10.04 95.80 10.39 95.80 10.78C95.80 11.41 96.03 11.89 96.48 12.23C96.93 12.57 97.56 12.74 98.36 12.74C99.34 12.74 100.01 12.41 100.35 11.75L100.35 12.60L102.24 12.60L102.24 7.98C102.24 7.31 101.96 6.80 101.39 6.46C100.82 6.12 100.04 5.95 99.06 5.95C98.54 5.95 98.04 6.04 97.56 6.22C97.08 6.39 96.69 6.59 96.39 6.80ZM97.71 10.58C97.71 10.08 98.17 9.83 99.09 9.83C99.57 9.83 99.99 9.90 100.35 10.04L100.35 10.08C100.35 10.51 100.21 10.82 99.92 11.03C99.63 11.23 99.25 11.33 98.78 11.33C98.46 11.33 98.20 11.26 98.00 11.13C97.80 11.00 97.71 10.82 97.71 10.58ZM105.81 8.82C105.81 8.38 105.95 8.05 106.22 7.82C106.49 7.59 106.83 7.48 107.24 7.48C107.59 7.48 107.85 7.57 108.02 7.76C108.18 7.95 108.26 8.26 108.26 8.68L108.26 12.60L110.15 12.60L110.15 8.26C110.15 7.57 109.95 7.02 109.55 6.61C109.15 6.21 108.61 6.01 107.94 6.01C106.98 6.01 106.27 6.41 105.81 7.22L105.81 6.16L103.92 6.16L103.92 12.60L105.81 12.60ZM111.41 9.38C111.41 10.50 111.72 11.34 112.34 11.90C112.95 12.46 113.73 12.74 114.67 12.74C115.71 12.74 116.49 12.30 117.01 11.41L117.01 12.60L118.90 12.60L118.90 1.68L117.01 1.68L117.01 7.35C116.49 6.46 115.71 6.02 114.67 6.02C113.73 6.02 112.95 6.30 112.34 6.86C111.72 7.42 111.41 8.26 111.41 9.38ZM113.32 9.38C113.32 8.89 113.49 8.48 113.84 8.17C114.19 7.86 114.63 7.70 115.16 7.70C115.70 7.70 116.14 7.84 116.49 8.11C116.84 8.39 117.01 8.81 117.01 9.38C117.01 9.95 116.84 10.37 116.49 10.65C116.14 10.92 115.70 11.06 115.16 11.06C114.61 11.06 114.17 10.92 113.83 10.63C113.49 10.35 113.32 9.93 113.32 9.38ZM124.01 4.55L126.53 4.55L126.53 12.60L128.49 12.60L128.49 4.55L131.01 4.55L131.01 2.80L124.01 2.80ZM134.99 8.15L135.95 6.64C135.61 6.22 135.09 6.01 134.40 6.01C133.77 6.01 133.22 6.35 132.76 7.03L132.76 6.16L130.80 6.16L130.80 12.60L132.76 12.60L132.76 9.02C132.76 8.57 132.85 8.26 133.03 8.09C133.22 7.91 133.51 7.83 133.91 7.83C134.33 7.83 134.69 7.93 134.99 8.15ZM137.37 8.15C137.56 8.01 137.87 7.87 138.27 7.73C138.68 7.59 139.09 7.52 139.50 7.52C140.35 7.52 140.78 7.80 140.78 8.37L140.78 9.02C140.26 8.75 139.59 8.61 138.77 8.61C138.50 8.61 138.22 8.65 137.95 8.72C137.67 8.80 137.40 8.91 137.14 9.07C136.87 9.23 136.65 9.46 136.49 9.75C136.32 10.04 136.23 10.39 136.23 10.78C136.23 11.41 136.46 11.89 136.91 12.23C137.37 12.57 137.99 12.74 138.80 12.74C139.78 12.74 140.44 12.41 140.78 11.75L140.78 12.60L142.67 12.60L142.67 7.98C142.67 7.31 142.39 6.80 141.82 6.46C141.25 6.12 140.48 5.95 139.50 5.95C138.97 5.95 138.47 6.04 137.99 6.22C137.51 6.39 137.12 6.59 136.82 6.80ZM138.14 10.58C138.14 10.08 138.60 9.83 139.52 9.83C140 9.83 140.42 9.90 140.78 10.04L140.78 10.08C140.78 10.51 140.64 10.82 140.35 11.03C140.06 11.23 139.68 11.33 139.22 11.33C138.89 11.33 138.63 11.26 138.43 11.13C138.24 11.00 138.14 10.82 138.14 10.58ZM146.24 8.82C146.24 8.38 146.38 8.05 146.65 7.82C146.92 7.59 147.26 7.48 147.67 7.48C148.03 7.48 148.29 7.57 148.45 7.76C148.61 7.95 148.69 8.26 148.69 8.68L148.69 12.60L150.58 12.60L150.58 8.26C150.58 7.57 150.38 7.02 149.98 6.61C149.58 6.21 149.04 6.01 148.37 6.01C147.41 6.01 146.70 6.41 146.24 7.22L146.24 6.16L144.35 6.16L144.35 12.60L146.24 12.60ZM153.40 10.35L151.77 10.88C151.87 11.48 152.18 11.95 152.71 12.29C153.24 12.64 153.91 12.81 154.71 12.81C155.53 12.81 156.19 12.61 156.71 12.22C157.23 11.83 157.49 11.35 157.49 10.78C157.49 10.23 157.32 9.79 156.97 9.47C156.63 9.15 156.19 8.89 155.64 8.68C155.51 8.63 155.34 8.58 155.15 8.51C154.95 8.45 154.80 8.40 154.70 8.36C154.60 8.32 154.49 8.27 154.38 8.22C154.27 8.16 154.19 8.11 154.14 8.05C154.09 7.99 154.07 7.93 154.07 7.85C154.07 7.52 154.28 7.35 154.70 7.35C155.16 7.35 155.55 7.59 155.89 8.06L157.36 7.56C156.94 6.49 156.03 5.95 154.62 5.95C153.88 5.95 153.29 6.12 152.84 6.45C152.40 6.79 152.18 7.26 152.18 7.85C152.18 8.79 152.82 9.45 154.10 9.86C154.56 10.01 154.92 10.15 155.18 10.29C155.43 10.43 155.55 10.59 155.55 10.78C155.55 11.15 155.27 11.34 154.71 11.34C154.05 11.34 153.61 11.01 153.40 10.35ZM162.71 3.71L163.42 2.20C163.30 2.03 163.09 1.88 162.78 1.74C162.48 1.61 162.13 1.54 161.73 1.54C160.89 1.54 160.24 1.76 159.78 2.19C159.32 2.63 159.10 3.20 159.10 3.92L159.10 6.16L158.19 6.16L158.19 7.77L159.10 7.77L159.10 12.60L160.99 12.60L160.99 7.77L162.60 7.77L162.60 6.16L160.99 6.16L160.99 4.27C160.99 3.91 161.06 3.64 161.22 3.47C161.37 3.30 161.56 3.22 161.80 3.22C162.21 3.22 162.51 3.38 162.71 3.71ZM163.14 9.38C163.14 10.44 163.51 11.28 164.24 11.89C164.97 12.50 165.86 12.81 166.89 12.81C167.93 12.81 168.81 12.50 169.55 11.89C170.28 11.28 170.65 10.44 170.65 9.38C170.65 8.32 170.28 7.48 169.55 6.87C168.81 6.26 167.93 5.95 166.89 5.95C165.86 5.95 164.97 6.26 164.24 6.87C163.51 7.48 163.14 8.32 163.14 9.38ZM165.05 9.38C165.05 8.84 165.21 8.40 165.55 8.06C165.89 7.73 166.33 7.56 166.89 7.56C167.45 7.56 167.90 7.73 168.24 8.06C168.57 8.40 168.74 8.84 168.74 9.38C168.74 9.92 168.57 10.36 168.24 10.70C167.90 11.03 167.45 11.20 166.89 11.20C166.33 11.20 165.89 11.03 165.55 10.70C165.21 10.36 165.05 9.92 165.05 9.38ZM175.95 8.15L176.92 6.64C176.57 6.22 176.05 6.01 175.36 6.01C174.73 6.01 174.18 6.35 173.73 7.03L173.73 6.16L171.77 6.16L171.77 12.60L173.73 12.60L173.73 9.02C173.73 8.57 173.82 8.26 174.00 8.09C174.18 7.91 174.47 7.83 174.87 7.83C175.29 7.83 175.65 7.93 175.95 8.15ZM179.86 8.82C179.86 8.48 179.96 8.21 180.15 8.00C180.35 7.79 180.63 7.69 181.01 7.69C181.69 7.69 182.03 8.02 182.03 8.68L182.03 12.60L183.92 12.60L183.92 8.82C183.92 8.48 184.02 8.21 184.21 8.00C184.41 7.79 184.69 7.69 185.07 7.69C185.75 7.69 186.09 8.02 186.09 8.68L186.09 12.60L187.98 12.60L187.98 8.40C187.98 7.60 187.78 7.00 187.39 6.60C187.00 6.20 186.46 6.01 185.77 6.01C185.31 6.01 184.90 6.11 184.53 6.32C184.17 6.53 183.88 6.82 183.67 7.18C183.31 6.40 182.66 6.01 181.71 6.01C180.97 6.01 180.35 6.37 179.86 7.11L179.86 6.16L177.83 6.16L177.83 12.60L179.86 12.60Z"/></g></svg>